<svg width="504" height="220" viewBox="0 0 504 220" fill="none" xmlns="http://www.w3.org/2000/svg">
<path d="M47.5184 139.214V113.913C47.5184 112.319 46.7215 111.124 44.9285 111.124H42.3387V141.405H44.9285C46.7215 141.405 47.5184 141.007 47.5184 139.214ZM44.9285 158.14H42.3387V183.043H44.9285C46.7215 183.043 47.5184 181.847 47.5184 180.253V160.929C47.5184 158.738 46.7215 158.14 44.9285 158.14ZM89.3549 163.917V205.355C89.3549 215.316 83.9759 219.5 75.2102 219.5H0.502197V74.4669H75.6086C85.1712 74.4669 89.3549 79.8459 89.3549 88.6117V132.839C89.3549 141.605 85.1712 146.983 75.6086 146.983V149.773C85.1712 149.773 89.3549 155.152 89.3549 163.917Z" fill="#111111"/>
<path d="M106.125 74.4669H181.232V106.741H136.208C135.012 106.741 134.215 107.338 134.215 108.733V111.124H181.232V142.003H134.215V144.394C134.215 145.788 135.012 146.386 136.208 146.386H181.232V178.66H106.125C96.5626 178.66 92.3789 173.281 92.3789 164.515V88.6117C92.3789 79.8459 96.5626 74.4669 106.125 74.4669ZM79.4295 183.043H181.232V219.5H79.4295V183.043Z" fill="#111111"/>
<path d="M184.052 88.6117C184.052 79.8459 188.235 74.4669 197.798 74.4669H259.158C268.721 74.4669 272.904 79.8459 272.904 88.6117V164.515C272.904 173.281 268.721 178.66 259.158 178.66L258.959 205.355C258.959 214.121 254.775 219.5 245.213 219.5H184.052V183.043H217.123V178.66H197.798C188.235 178.66 184.052 173.281 184.052 164.515V88.6117ZM231.068 143.597V109.53C231.068 108.335 230.271 106.741 228.478 106.741C226.685 106.741 225.888 108.335 225.888 109.53V143.597C225.888 145.589 226.685 146.386 228.478 146.386C230.271 146.386 231.068 145.589 231.068 143.597Z" fill="#111111"/>
<path d="M275.729 74.4669H317.167L317.566 143.597C317.566 145.589 318.363 146.386 320.156 146.386C321.749 146.386 322.745 145.589 322.745 143.597L322.347 74.4669H364.184C364.184 74.4669 364.582 147.78 364.582 164.515C364.582 173.281 360.398 178.66 350.836 178.66H289.476C279.913 178.66 275.729 173.281 275.729 164.515C275.729 147.78 275.729 74.4669 275.729 74.4669ZM262.78 183.043H364.582V219.5H262.78V183.043Z" fill="#111111"/>
<path d="M414.423 113.116C414.224 111.721 413.427 111.323 412.232 111.124H409.243V219.5H367.407V74.4669L488.733 74.2677C498.295 74.2677 502.479 79.6467 502.479 88.4124V219.5H474.389C464.826 219.5 460.642 214.121 460.642 205.355V113.714C460.642 111.921 460.045 111.124 458.451 110.924H456.259V219.5H428.169C418.607 219.5 414.423 214.121 414.423 205.355V113.116Z" fill="#111111"/>
<path d="M0.502197 70.3918C1.16184 50.7225 1.49166 33.7218 1.49166 19.3897L1.40171 1.75931H34.6835L43.6786 50.0629H45.4776L54.3828 1.75931H87.7545L87.6646 19.3897C87.6646 36.5403 87.9944 53.541 88.654 70.3918H68.595C68.595 58.1585 68.535 48.5937 68.4151 41.6975L68.1452 19.2997H66.796L56.0019 70.3918H33.1544L22.3603 19.2997H21.011L20.7411 41.7874C20.6212 51.8619 20.5612 59.058 20.5612 63.3756V70.3918H0.502197Z" fill="#111111"/>
<path d="M91.4656 70.3918C91.7655 60.857 91.9154 49.4033 91.9154 36.0306C91.9154 22.7179 91.7655 11.2941 91.4656 1.75931H113.683C113.384 9.37515 113.234 20.7689 113.234 35.9406C113.234 51.2323 113.384 62.716 113.683 70.3918H91.4656Z" fill="#111111"/>
<path d="M116.459 70.3918C116.759 58.2784 116.909 45.7453 116.909 32.7923C116.909 23.4974 116.759 13.1531 116.459 1.75931H147.942L161.165 38.2793L162.064 41.5176C163.204 45.4154 164.073 48.5637 164.673 50.9624H166.022C165.662 46.7647 165.482 43.2566 165.482 40.4382C165.482 29.764 165.333 16.871 165.033 1.75931H185.452C185.212 12.3135 185.092 23.6174 185.092 35.6708C185.092 47.7842 185.212 59.3578 185.452 70.3918H153.879L142.185 39.2688C140.326 32.9722 138.737 26.8556 137.418 20.9188H135.979C136.039 21.5785 136.128 23.5874 136.248 26.9455C136.368 30.3037 136.428 32.7624 136.428 34.3215C136.428 47.8141 136.548 59.8376 136.788 70.3918H116.459Z" fill="#111111"/>
<path d="M188.273 70.3918C188.573 60.857 188.723 49.4033 188.723 36.0306C188.723 22.7179 188.573 11.2941 188.273 1.75931H210.491C210.191 9.37515 210.041 20.7689 210.041 35.9406C210.041 51.2323 210.191 62.716 210.491 70.3918H188.273Z" fill="#111111"/>
<path d="M259.997 71.4712C252.861 71.4712 246.924 70.7816 242.186 69.4023C237.449 67.9631 233.731 65.5944 231.033 62.2962C228.334 58.9381 226.685 54.4105 226.085 48.7136L250.192 46.8247C250.492 49.7031 251.361 52.0718 252.801 53.9308C254.3 55.7298 256.818 56.6293 260.357 56.6293C261.496 56.6293 262.785 56.5693 264.224 56.4494C265.724 56.2695 266.713 56.0296 267.193 55.7298C267.852 53.631 268.182 51.4122 268.182 49.0734C268.182 47.3944 267.912 46.0751 267.373 45.1156C266.893 44.1561 265.933 43.4365 264.494 42.9568C263.115 42.4171 261.046 42.0573 258.288 41.8774C246.954 41.6375 239.008 39.8085 234.451 36.3904C229.893 32.9722 227.614 28.1449 227.614 21.9083C227.614 14.8921 230.403 9.58503 235.98 5.987C241.617 2.329 249.053 0.5 258.288 0.5C268.542 0.5 276.248 2.62884 281.405 6.88651C286.562 11.0842 289.561 17.6506 290.4 26.5857L268.182 28.1149C267.882 25.1165 267.493 22.8378 267.013 21.2786C266.533 19.7195 265.574 18.4902 264.134 17.5907C262.695 16.6312 260.476 16.1514 257.478 16.1514C256.519 16.1514 255.349 16.2114 253.97 16.3313C252.591 16.4513 251.661 16.6012 251.182 16.7811C250.282 19.2997 249.832 21.8183 249.832 24.337C249.832 26.9156 250.522 28.8045 251.901 30.0039C253.28 31.2032 255.829 31.9528 259.547 32.2526C267.942 32.4325 274.359 33.2121 278.796 34.5914C283.234 35.9706 286.232 37.8896 287.792 40.3482C289.411 42.8069 290.22 46.0751 290.22 50.1529C290.22 54.5904 288.901 58.4283 286.262 61.6666C283.684 64.9048 280.086 67.3634 275.468 69.0425C270.911 70.6616 265.754 71.4712 259.997 71.4712Z" fill="#111111"/>
<path d="M356.402 70.3918H331.936L316.194 39.9884H312.866L313.496 70.3918H291.188C291.488 57.6188 291.638 46.195 291.638 36.1205C291.638 26.106 291.488 14.6523 291.188 1.75931H313.496L312.866 31.4431H316.194L331.666 1.75931H355.233L341.29 27.5752C340.331 29.3742 339.342 30.6935 338.322 31.533C337.363 32.3726 335.953 33.0022 334.094 33.422C332.295 33.8418 329.327 34.3215 325.189 34.8612V36.1205C329.447 36.6003 332.475 37.08 334.274 37.5597C336.073 37.9795 337.423 38.6092 338.322 39.4487C339.222 40.2882 340.181 41.6975 341.2 43.6764L356.402 70.3918Z" fill="#111111"/>
<path d="M355.271 70.3918C355.571 60.857 355.721 49.4033 355.721 36.0306C355.721 22.7179 355.571 11.2941 355.271 1.75931H377.489C377.189 9.37515 377.039 20.7689 377.039 35.9406C377.039 51.2323 377.189 62.716 377.489 70.3918H355.271Z" fill="#111111"/>
<path d="M380.265 70.3918C380.565 58.2784 380.715 46.8547 380.715 36.1205C380.715 25.2065 380.565 13.7528 380.265 1.75931H414.356C421.133 1.75931 426.62 2.29901 430.817 3.37842C435.075 4.39787 438.313 6.25685 440.532 8.95538C442.751 11.5939 443.86 15.3419 443.86 20.1992C443.86 27.0955 442.061 31.9528 438.463 34.7713C434.865 37.5897 429.078 38.999 421.103 38.999V40.4382C428.838 40.5581 434.385 41.7275 437.744 43.9462C441.102 46.1051 442.991 49.5532 443.41 54.2906C443.53 55.9697 443.95 58.6682 444.67 62.3862C445.449 66.0442 446.139 68.7127 446.739 70.3918H422.812C421.672 63.6755 421.013 58.4583 420.833 54.7403C420.533 52.6415 420.113 51.0524 419.574 49.973C419.094 48.8336 418.284 48.024 417.145 47.5443C416.005 47.0645 414.356 46.8247 412.198 46.8247H402.483V70.3918H380.265ZM410.578 33.8718C414.057 33.8718 416.665 33.2421 418.404 31.9828C420.143 30.6635 421.013 28.4447 421.013 25.3264C421.013 22.0882 420.143 19.8394 418.404 18.5801C416.665 17.3208 413.997 16.6911 410.399 16.6911H402.213V33.8718H410.578Z" fill="#111111"/>
<path d="M463.649 72.0109C463.949 59.5977 464.099 48.4738 464.099 38.6391C464.099 32.2826 464.039 26.046 463.919 19.9294C459.302 19.9294 453.575 20.0493 446.739 20.2892V3.37842H503.498V20.2892C497.261 20.0493 491.444 19.9294 486.047 19.9294C485.927 24.0071 485.867 30.9034 485.867 40.6181C485.867 51.1723 485.957 61.6366 486.137 72.0109H463.649Z" fill="#111111"/>
</svg>
